# xmcd
#
# Track frame offsets:
#	150
#	13617
#	26354
#	39761
#	56064
#	64727
#	84191
#	88705
#	102696
#	115746
#	129204
#	147076
#	158555
#	169186
#	180736
#
# Disc length: 2654 seconds
#
# Revision: 1
# Processed by: cddbd v1.5.2PL0 Copyright (c) Steve Scherf et al.
# Submitted via: audiograbber 1.83.01
#
DISCID=b40a5c0f
DTITLE=Various Artist - Lauluja Lapsille Ja Lapsenmielisille
DYEAR=2008
DGENRE=Pop
TTITLE0=Risto Räppääjä - Ei Hassumpaa
TTITLE1=Pikku-Orava - Minttu Sekä Ville
TTITLE2=M.A. Numminen - Auto Synnyttää
TTITLE3=Jam Jam - Kummajainen
TTITLE4=Pedro Hietanen - Vieterihiiri
TTITLE5=Mikko Alatalo - Känkkäränkkä Ja Iltapesu
TTITLE6=Lapsiryhmä - Jänikseltä Housut Puttoo
TTITLE7=Ritva Oksanen - Päivänsäde Ja Menninkäinen
TTITLE8=Lollipop - Vaarilla On Saari
TTITLE9=Pikku-Orava - Naurava Kulkuri
TTITLE10=Benny Törnroos - Fixu Vekotin
TTITLE11=Aila Sinkkonen - Kamala Amalia
TTITLE12=Mikko Alatalo - Karkkipäivä
TTITLE13=M.A. Numminen - Poliisi Ja Rosvo
TTITLE14=Lollipop - Sininen Uni
EXTD=TR.
EXTT0=
EXTT1=
EXTT2=
EXTT3=
EXTT4=
EXTT5=
EXTT6=
EXTT7=
EXTT8=
EXTT9=
EXTT10=
EXTT11=
EXTT12=
EXTT13=
EXTT14=
PLAYORDER=
